<?xml version="1.0" standalone="no"?>
<!DOCTYPE svg PUBLIC "-//W3C//DTD SVG 20010904//EN"
 "http://www.w3.org/TR/2001/REC-SVG-20010904/DTD/svg10.dtd">
<svg version="1.0" xmlns="http://www.w3.org/2000/svg"
 width="405.000000pt" height="405.000000pt" viewBox="0 0 405.000000 405.000000"
 preserveAspectRatio="xMidYMid meet">
<metadata>
Created by potrace 1.11, written by Peter Selinger 2001-2013
</metadata>
<g transform="translate(0.000000,405.000000) scale(0.100000,-0.100000)"
fill="#000000" stroke="none">
<path d="M1124 3576 c-89 -39 -154 -143 -154 -246 0 -89 59 -209 114 -231 40
-17 83 8 137 82 27 38 65 74 108 101 115 75 153 133 125 190 -43 85 -235 145
-330 104z"/>
<path d="M2862 3567 c-81 -26 -143 -79 -147 -125 -4 -47 28 -87 118 -152 44
-31 102 -84 132 -122 59 -72 88 -87 133 -69 54 23 113 152 107 238 -6 97 -63
191 -140 230 -45 24 -131 24 -203 0z"/>
<path d="M1559 3046 c-127 -44 -211 -165 -212 -306 -1 -171 166 -309 286 -236
10 6 43 47 73 91 29 44 70 102 89 129 34 47 40 67 36 135 -4 65 -58 142 -125
177 -38 21 -103 25 -147 10z"/>
<path d="M2457 3038 c-83 -52 -126 -162 -102 -265 3 -11 29 -53 57 -92 29 -39
69 -94 88 -121 69 -98 162 -98 262 -2 101 97 85 296 -34 414 -83 83 -197 111
-271 66z"/>
<path d="M1992 2643 c-40 -19 -78 -57 -85 -84 -8 -28 30 -65 80 -78 55 -15 68
-44 66 -149 -2 -92 7 -122 37 -122 25 0 31 22 28 121 -2 109 15 141 84 154 30
6 63 40 65 67 3 33 -23 68 -65 85 -53 22 -170 25 -210 6z"/>
<path d="M974 2162 c-149 -198 -308 -516 -385 -770 -82 -269 -92 -485 -33
-688 38 -134 97 -234 195 -332 247 -249 668 -306 942 -128 74 48 152 130 184
195 38 77 38 179 0 243 -50 87 -128 141 -249 174 -32 8 -67 23 -79 32 -22 19
-36 76 -31 130 l3 34 45 -64 c25 -34 49 -69 53 -76 9 -15 91 -25 91 -11 0 6
-40 66 -90 135 -49 68 -90 126 -90 130 0 3 45 67 100 143 104 143 117 154 220
188 63 21 361 26 442 7 90 -21 166 -63 229 -125 l56 -56 -3 -214 -2 -215 32 2
c29 2 30 2 11 -12 -11 -8 -48 -23 -82 -34 -88 -27 -133 -52 -183 -102 -56 -56
-80 -109 -80 -180 0 -159 146 -319 362 -395 98 -35 297 -42 404 -14 352 92
558 339 600 721 12 107 0 289 -28 410 -5 25 -11 52 -13 60 -40 192 -184 504
-337 731 l-101 149 -36 -22 c-20 -12 -52 -37 -73 -56 -143 -132 -373 -250
-573 -295 -157 -35 -244 -44 -410 -42 -189 3 -310 22 -470 72 -133 42 -237 98
-383 207 -209 156 -179 147 -238 68z"/>
<path d="M2005 1437 c-37 -12 -63 -34 -80 -68 -15 -28 -22 -468 -8 -470 58 -7
63 -6 64 20 0 14 1 107 1 207 0 201 8 237 55 255 41 15 90 3 111 -28 17 -27
20 -73 21 -379 l1 -81 33 1 32 1 5 224 5 223 28 24 c31 26 81 30 111 9 37 -27
41 -57 41 -268 0 -134 3 -207 10 -208 5 -1 21 -2 35 -3 l25 -1 0 230 c0 254
-4 268 -67 301 -64 33 -166 25 -203 -16 -18 -19 -18 -19 -47 5 -16 14 -35 26
-41 26 -50 6 -107 5 -132 -4z"/>
<path d="M1759 1425 c-1 -13 -1 -518 0 -526 1 -3 16 -5 34 -4 l32 2 3 269 2
270 -35 0 c-19 -1 -35 -5 -36 -11z"/>
</g>
</svg>
